<?xml version="1.0" standalone="no"?>
<!DOCTYPE svg PUBLIC "-//W3C//DTD SVG 20010904//EN"
 "http://www.w3.org/TR/2001/REC-SVG-20010904/DTD/svg10.dtd">
<svg version="1.0" xmlns="http://www.w3.org/2000/svg"
 width="512.000000pt" height="512.000000pt" viewBox="0 0 512.000000 512.000000"
 preserveAspectRatio="xMidYMid meet">
<metadata>
Created by potrace 1.14, written by Peter Selinger 2001-2017
</metadata>
<g transform="translate(0.000000,512.000000) scale(0.100000,-0.100000)"
fill="#000000" stroke="none">
<path d="M778 4486 c-63 -94 -264 -395 -448 -668 l-333 -497 89 -98 c49 -54
91 -100 94 -103 3 -3 45 -50 95 -105 49 -55 92 -102 95 -105 7 -7 158 -175
201 -224 19 -21 41 -46 50 -55 8 -9 118 -131 244 -271 126 -140 232 -257 235
-260 3 -3 43 -48 90 -100 47 -52 88 -97 91 -100 3 -3 86 -95 184 -205 99 -110
184 -205 190 -211 5 -6 39 -43 75 -84 36 -40 70 -78 76 -84 5 -6 57 -63 114
-126 104 -116 231 -257 273 -302 12 -13 54 -60 92 -103 39 -43 75 -83 80 -89
6 -6 48 -54 95 -106 47 -52 93 -102 102 -112 17 -17 31 -3 285 285 147 166
342 385 432 487 90 102 194 219 230 260 36 41 84 95 107 120 66 74 97 108 434
490 177 201 339 383 359 405 20 22 122 137 226 255 104 118 192 217 195 220 3
3 57 64 119 135 63 72 127 144 143 160 l28 31 -275 409 c-151 226 -353 526
-447 668 l-173 258 -1666 -2 -1666 -3 -115 -170z"/>
</g>
</svg>
